<svg width="200" height="205" viewBox="0 0 200 205" fill="none" xmlns="http://www.w3.org/2000/svg">
<path d="M31.8036 12.3707C31.8036 5.53855 37.2838 0 44.044 0C50.8042 0 56.2844 5.53855 56.2844 12.3707V28.056L69.7252 20.2134C75.5797 16.7973 83.0658 18.8245 86.4459 24.7413C89.826 30.6582 87.8201 38.224 81.9656 41.64L68.5247 49.4828L81.9656 57.3255C87.8201 60.7416 89.8259 68.3074 86.4459 74.2242C83.0658 80.141 75.5797 82.1682 69.7252 78.7522L56.2844 70.9095V86.5948C56.2844 93.427 50.8042 98.9655 44.044 98.9655C37.2838 98.9655 31.8036 93.427 31.8036 86.5948V70.9093L18.3627 78.7521C12.5082 82.1682 5.02208 80.1409 1.64199 74.2241C-1.7381 68.3073 0.267799 60.7415 6.12229 57.3254L19.5631 49.4828L6.12224 41.6401C0.267751 38.224 -1.73815 30.6582 1.64194 24.7414C5.02204 18.8246 12.5081 16.7973 18.3626 20.2134L31.8036 28.0562V12.3707Z" fill="url(#paint0_linear_2_17)"/>
<path d="M143.716 40.6466C143.716 33.8144 149.196 28.2759 155.956 28.2759C162.716 28.2759 168.197 33.8144 168.197 40.6466V56.3319L181.637 48.4892C187.492 45.0732 194.978 47.1004 198.358 53.0172C201.738 58.934 199.732 66.4998 193.878 69.9159L180.437 77.7586L193.878 85.6014C199.732 89.0174 201.738 96.5832 198.358 102.5C194.978 108.417 187.492 110.444 181.637 107.028L168.197 99.1854V114.871C168.197 121.703 162.716 127.241 155.956 127.241C149.196 127.241 143.716 121.703 143.716 114.871V99.1852L130.275 107.028C124.42 110.444 116.934 108.417 113.554 102.5C110.174 96.5832 112.18 89.0174 118.034 85.6013L131.475 77.7586L118.034 69.9159C112.18 66.4999 110.174 58.9341 113.554 53.0173C116.934 47.1005 124.42 45.0732 130.275 48.4893L143.716 56.3321V40.6466Z" fill="url(#paint1_linear_2_17)"/>
<path d="M59.7817 118.405C59.7817 111.573 65.2619 106.034 72.0221 106.034C78.7822 106.034 84.2624 111.573 84.2624 118.405V134.091L97.7033 126.248C103.558 122.832 111.044 124.859 114.424 130.776C117.804 136.693 115.798 144.258 109.944 147.675L96.5027 155.517L109.944 163.36C115.798 166.776 117.804 174.342 114.424 180.259C111.044 186.175 103.558 188.203 97.7032 184.787L84.2624 176.944V192.629C84.2624 199.461 78.7822 205 72.0221 205C65.2619 205 59.7817 199.461 59.7817 192.629V176.944L46.3407 184.787C40.4862 188.203 33.0001 186.175 29.62 180.259C26.2399 174.342 28.2458 166.776 34.1003 163.36L47.5411 155.517L34.1003 147.675C28.2458 144.258 26.2399 136.693 29.62 130.776C33.0001 124.859 40.4862 122.832 46.3407 126.248L59.7817 134.091V118.405Z" fill="url(#paint2_linear_2_17)"/>
<defs>
<linearGradient id="paint0_linear_2_17" x1="100" y1="0" x2="100" y2="205" gradientUnits="userSpaceOnUse">
<stop stop-color="#0066FF"/>
<stop offset="1" stop-color="#00C2FF"/>
</linearGradient>
<linearGradient id="paint1_linear_2_17" x1="100" y1="0" x2="100" y2="205" gradientUnits="userSpaceOnUse">
<stop stop-color="#0066FF"/>
<stop offset="1" stop-color="#00C2FF"/>
</linearGradient>
<linearGradient id="paint2_linear_2_17" x1="100" y1="0" x2="100" y2="205" gradientUnits="userSpaceOnUse">
<stop stop-color="#0066FF"/>
<stop offset="1" stop-color="#00C2FF"/>
</linearGradient>
</defs>
</svg>
