<svg xmlns="http://www.w3.org/2000/svg" version="1.1" xmlns:xlink="http://www.w3.org/1999/xlink" xmlns:svgjs="http://svgjs.com/svgjs" width="1000" height="1000" preserveAspectRatio="none" viewBox="0 0 1000 1000"><g mask="url(&quot;#SvgjsMask1032&quot;)" fill="none"><rect width="1000" height="1000" x="0" y="0" fill="#0e2a47"></rect><path d="M674 903L673 1203" stroke-width="6" stroke="url(#SvgjsLinearGradient1033)" stroke-linecap="round" class="Down"></path><path d="M839 806L838 474" stroke-width="6" stroke="url(#SvgjsLinearGradient1033)" stroke-linecap="round" class="Down"></path><path d="M141 747L140 1440" stroke-width="6" stroke="url(#SvgjsLinearGradient1034)" stroke-linecap="round" class="Up"></path><path d="M778 881L777 1178" stroke-width="10" stroke="url(#SvgjsLinearGradient1033)" stroke-linecap="round" class="Down"></path><path d="M878 194L877 -371" stroke-width="10" stroke="url(#SvgjsLinearGradient1034)" stroke-linecap="round" class="Up"></path><path d="M115 316L114 667" stroke-width="6" stroke="url(#SvgjsLinearGradient1034)" stroke-linecap="round" class="Up"></path><path d="M560 121L559 661" stroke-width="10" stroke="url(#SvgjsLinearGradient1033)" stroke-linecap="round" class="Down"></path><path d="M163 239L162 -421" stroke-width="10" stroke="url(#SvgjsLinearGradient1034)" stroke-linecap="round" class="Up"></path><path d="M728 568L727 46" stroke-width="10" stroke="url(#SvgjsLinearGradient1034)" stroke-linecap="round" class="Up"></path><path d="M491 83L490 -236" stroke-width="6" stroke="url(#SvgjsLinearGradient1033)" stroke-linecap="round" class="Down"></path><path d="M836 386L835 62" stroke-width="6" stroke="url(#SvgjsLinearGradient1033)" stroke-linecap="round" class="Down"></path><path d="M538 398L537 -351" stroke-width="10" stroke="url(#SvgjsLinearGradient1033)" stroke-linecap="round" class="Down"></path><path d="M937 867L936 151" stroke-width="8" stroke="url(#SvgjsLinearGradient1033)" stroke-linecap="round" class="Down"></path><path d="M161 735L160 1429" stroke-width="10" stroke="url(#SvgjsLinearGradient1034)" stroke-linecap="round" class="Up"></path><path d="M771 66L770 -314" stroke-width="8" stroke="url(#SvgjsLinearGradient1034)" stroke-linecap="round" class="Up"></path><path d="M956 945L955 1508" stroke-width="10" stroke="url(#SvgjsLinearGradient1034)" stroke-linecap="round" class="Up"></path><path d="M524 113L523 -328" stroke-width="6" stroke="url(#SvgjsLinearGradient1034)" stroke-linecap="round" class="Up"></path><path d="M221 527L220 1273" stroke-width="10" stroke="url(#SvgjsLinearGradient1034)" stroke-linecap="round" class="Up"></path><path d="M355 130L354 651" stroke-width="8" stroke="url(#SvgjsLinearGradient1034)" stroke-linecap="round" class="Up"></path><path d="M172 610L171 351" stroke-width="6" stroke="url(#SvgjsLinearGradient1033)" stroke-linecap="round" class="Down"></path><path d="M782 959L781 1581" stroke-width="6" stroke="url(#SvgjsLinearGradient1033)" stroke-linecap="round" class="Down"></path><path d="M912 942L911 225" stroke-width="6" stroke="url(#SvgjsLinearGradient1033)" stroke-linecap="round" class="Down"></path><path d="M520 164L519 -342" stroke-width="6" stroke="url(#SvgjsLinearGradient1033)" stroke-linecap="round" class="Down"></path><path d="M52 901L51 1493" stroke-width="6" stroke="url(#SvgjsLinearGradient1033)" stroke-linecap="round" class="Down"></path><path d="M12 581L11 1146" stroke-width="6" stroke="url(#SvgjsLinearGradient1034)" stroke-linecap="round" class="Up"></path></g><defs><mask id="SvgjsMask1032"><rect width="1000" height="1000" fill="#ffffff"></rect></mask><linearGradient x1="0%" y1="0%" x2="0%" y2="100%" id="SvgjsLinearGradient1033"><stop stop-color="rgba(28, 83, 142, 0)" offset="0"></stop><stop stop-color="#1c538e" offset="1"></stop></linearGradient><linearGradient x1="0%" y1="100%" x2="0%" y2="0%" id="SvgjsLinearGradient1034"><stop stop-color="rgba(28, 83, 142, 0)" offset="0"></stop><stop stop-color="#1c538e" offset="1"></stop></linearGradient></defs></svg>